# xmcd CD database file
#
# Track frame offsets:
#	150
#	24002
#	44830
#	71995
#	89232
#	111812
#	136150
#	197347
#	218209
#	237632
#	263312
#	282030
#
# Disc length: 4044 seconds
#
# Revision: 0
# Processed by: cddbd v1.5.1PL0 Copyright (c) Steve Scherf et al.
# Submitted via: CDex 1.51
#
DISCID=ae0fca0c
DTITLE=Varios - Salsa Guateque
DYEAR=1900
DGENRE=Salsa
TTITLE0=Cui Cui/Roberto Roena
TTITLE1=Balada Para Una Mujer Enamorada/Roberto Lugo
TTITLE2=Te Voy Hacer Feliz/Costa Brava
TTITLE3=No Quiero Perderte/Makore
TTITLE4=Voy A Ti Voy A Mi/Puerto Rican Power
TTITLE5=Yo Soy Ese Hombre/Orquesta Mulenze
TTITLE6=Lamento De Concepcion/Roberto Roena
TTITLE7=Quisiera Callar/Orquesta Matecaña
TTITLE8=Cuanto Te Amo/Anthony Cruz
TTITLE9=La Noche Mas Linda Del Mundo/Adalberto Santiago
TTITLE10=Hace Un Mes/Kim De Los Santos
TTITLE11=Me Mata La Soledad/Tito Rojas
EXTD=
EXTT0=
EXTT1=
EXTT2=
EXTT3=
EXTT4=
EXTT5=
EXTT6=
EXTT7=
EXTT8=
EXTT9=
EXTT10=
EXTT11=
PLAYORDER=
